{"title":"The Mechanic (2011) (In Hindi) 1cd TS RIP XVID TEAM DAYN","uid":6185991,"size":807166812,"categoryP":"video","categoryS":"movies","magnet":"?xt=urn:btih:2790e46d2c9d6ba70a14bafd18811e677d9c629c&amp;dn=The+Mechanic+%282011%29+%28In+Hindi%29+1cd+TS+RIP+XVID+TEAM+DAYN&amp;tr=udp%3A%2F%2Ftracker.openbittorrent.com%3A80&amp;tr=udp%3A%2F%2Fopen.demonii.com%3A1337&amp;tr=udp%3A%2F%2Ftracker.coppersurfer.tk%3A6969&amp;tr=udp%3A%2F%2Fexodus.desync.com%3A6969","seeders":0,"leechers":1,"uploader":"arihantkatariya","files":1,"time":1298109056,"description":"[CENTER][SIZE=5][COLOR=Plum][B]TEAM DAYN PROUDLY PRESENTS[/B][/COLOR][/SIZE]\n\n[I]WITH INSPIRATION OF[/I]\n\n[SIZE=5][B][COLOR=SeaGreen]-=![POSTERBHAI]!=-[/COLOR][/B][/SIZE]\n\n[SIZE=6][B][COLOR=Lime]The Mechanic (2011) (In Hindi) 1cd TS RIP XVID * FIRST ON NET*[/COLOR][/B][/SIZE]\n\n\n\n[B]Media Info:\n\n[code]\nFormat                           : AVI\nFormat/Info                      : Audio Video Interleave\nFile size                        : 770 MiB\nDuration                         : 1h 24mn\nOverall bit rate                 : 1 276 Kbps\nWriting application              : Lavf52.39.1\n\nVideo\nID                               : 0\nFormat                           : xvid\nCodec ID                         : xvid\nDuration                         : 1h 24mn\nBit rate                         : 1 199 Kbps\nWidth                            : 624 pixels\nHeight                           : 352 pixels\nDisplay aspect ratio             : 16:9\nFrame rate                       : 25.000 fps\nBits/(Pixel*Frame)               : 0.218\nStream size                      : 724 MiB (94%)\n\nAudio\nID                               : 1\nFormat                           : MPEG Audio\nFormat version                   : Version 1\nFormat profile                   : Layer 3\nMode                             : Joint stereo\nCodec ID                         : 55\nCodec ID/Hint                    : MP3\nDuration                         : 1h 24mn\nBit rate mode                    : Constant\nBit rate                         : 64.0 Kbps\nChannel(s)                       : 2 channels\nSampling rate                    : 44.1 KHz\nCompression mode                 : Lossy\nStream size                      : 38.6 MiB (5%)\nAlignment                        : Aligned on interleaves\nInterleave, duration             : 26 ms (0.65 video frame)\nInterleave, preload duration     : 26 ms\n[/code]Screens:\n\n\n\n\n\nSample:\n\n[code] &lt;a href=&quot;\nhttp://www.duckload.com/download/2998539/Mechanic-2011-Hindi.Dubbed.Dayn.sample.avi&quot; rel=&quot;nofollow&quot; target=&quot;_NEW&quot;&gt;\nhttp://www.duckload.com/download/2998539/Mechanic-2011-Hindi.Dubbed.Dayn.sample.avi&lt;/a&gt;\n[/code]\n\n\n\n[URL=&quot;http://[/B&quot;][/URL][/CENTER]","torrent":{"xt":"urn:btih:2790e46d2c9d6ba70a14bafd18811e677d9c629c","amp;dn":"The+Mechanic+%282011%29+%28In+Hindi%29+1cd+TS+RIP+XVID+TEAM+DAYN","amp;tr":["udp%3A%2F%2Ftracker.openbittorrent.com%3A80","udp%3A%2F%2Fopen.demonii.com%3A1337","udp%3A%2F%2Ftracker.coppersurfer.tk%3A6969","udp%3A%2F%2Fexodus.desync.com%3A6969"],"infoHash":"2790e46d2c9d6ba70a14bafd18811e677d9c629c","infoHashBuffer":{"type":"Buffer","data":[39,144,228,109,44,157,107,167,10,20,186,253,24,129,30,103,125,156,98,156]},"announce":[],"urlList":[]}}